Coordinates
version=1
nRows=11
nColumns=42
inDegrees=yes

Units are S.I. units (second, meters, Newtons, ...)
If the header above contains a line with 'inDegrees', this indicates whether rotational values are in degrees (yes) or radians (no).

endheader
time	pelvis_tilt	pelvis_list	pelvis_rotation	pelvis_tx	pelvis_ty	pelvis_tz	hip_flexion_r	hip_adduction_r	hip_rotation_r	knee_angle_r	knee_adduction_r	knee_angle_r_beta	ankle_angle_r	subtalar_angle_r	mtp_angle_r	hip_flexion_l	hip_adduction_l	hip_rotation_l	knee_angle_l	knee_adduction_l	knee_angle_l_beta	ankle_angle_l	subtalar_angle_l	mtp_angle_l	lumbar_extension	lumbar_bending	lumbar_rotation	arm_flex_r	arm_add_r	arm_rot_r	elbow_flex_r	pro_sup_r	wrist_flex_r	wrist_dev_r	arm_flex_l	arm_add_l	arm_rot_l	elbow_flex_l	pro_sup_l	wrist_flex_l	wrist_dev_l
      2.90000000	      8.51246307	      7.09567585	     20.66320794	      0.67040018	      0.90653781	      0.50860070	     -7.35048314	      0.18406379	    -21.33133248	     18.17172219	      3.30328921	      0.31715638	     18.99711424	     -1.72102720	     -7.53548930	     21.66282271	     -7.76649737	      2.89012473	     24.74627096	      5.13819976	      0.43190391	      6.83116501	      7.16194598	     -7.53548930	    -23.69648263	     -8.05678783	     -3.63441776	     -9.80354874	    -26.26730224	    -50.50275723	     62.35489501	     90.00000001	      0.00000000	      0.00000000	      4.37451813	    -20.39388350	     13.82335077	     82.82064107	     90.00000001	      0.00000000	      0.00000000
      2.91000000	      9.06291130	      7.31745073	     20.29550689	      0.67326282	      0.90678240	      0.50842139	     -8.38938414	      0.12517728	    -21.15154820	     17.84337250	      3.48789337	      0.31142560	     19.63422229	     -1.44285412	     -7.53470421	     22.05217347	     -7.40427707	      2.48185511	     25.28241341	      5.02461956	      0.44126136	      6.83965749	      7.27211333	     -7.53470421	    -24.09098041	     -8.10366361	     -3.50699622	    -10.01075198	    -26.46348522	    -49.06454815	     63.94587813	     90.00000001	      0.00000000	      0.00000000	      3.82120973	    -20.31200648	     13.24999690	     83.20569557	     90.00000001	      0.00000000	      0.00000000
      2.92000000	      9.28370823	      7.34431802	     19.75464247	      0.67585963	      0.90661804	      0.50852166	     -8.66029021	      0.08652296	    -21.03431675	     18.08329531	      3.44064111	      0.31561304	     19.55303134	     -1.28338541	     -7.53428870	     22.63793638	     -7.13232496	      2.60206928	     25.44966043	      5.08789896	      0.44418037	      6.78327324	      7.37618779	     -7.53428870	    -24.06524282	     -8.19472611	     -2.96865427	     -9.68228035	    -26.56527045	    -48.70371338	     64.25336892	     90.00000001	      0.00000000	      0.00000000	      3.50548140	    -20.19367641	     13.26617190	     83.15795214	     90.00000001	      0.00000000	      0.00000000
      2.93000000	      9.83383428	      7.50435191	     19.25117317	      0.67872483	      0.90678198	      0.50844678	     -9.54430616	      0.04370527	    -20.79210634	     17.94491533	      3.53813480	      0.31319786	     20.01270511	     -0.81537455	     -7.53318246	     22.88011875	     -6.84427442	      2.43702415	     25.86753821	      5.06147135	      0.45147371	      6.95069356	      7.64728669	     -7.53318246	    -24.44265732	     -8.22893375	     -2.71782935	     -9.93759643	    -26.83752743	    -47.08960036	     65.68305800	     90.00000001	      0.00000000	      0.00000000	      2.91717627	    -20.07105091	     12.79923102	     83.55224667	     90.00000001	      0.00000000	      0.00000000
      2.94000000	     10.03943589	      7.50920455	     18.70009982	      0.68142538	      0.90652494	      0.50853596	     -9.76804752	      0.00935506	    -20.65063621	     18.23455593	      3.46602389	      0.31825304	     19.92951294	     -0.68070134	     -7.53278704	     23.41340215	     -6.58682084	      2.60327673	     26.06955838	      5.13456151	      0.45499963	      6.87707881	      7.73214398	     -7.53278704	    -24.37481866	     -8.30998713	     -2.20997349	     -9.59187923	    -26.85120202	    -46.77406471	     65.96733413	     90.00000001	      0.00000000	      0.00000000	      2.56807026	    -19.97315338	     12.84938212	     83.46289071	     90.00000001	      0.00000000	      0.00000000
      2.95000000	     10.43952296	      7.59961769	     18.18819722	      0.68411894	      0.90636431	      0.50855465	    -10.32361088	     -0.00356980	    -20.41254647	     18.33764639	      3.41825183	      0.32005231	     20.50957472	     -0.58848189	     -7.53212235	     23.79681003	     -6.36521930	      2.78421758	     26.53185692	      5.38464616	      0.46306826	      6.92659087	      7.68247769	     -7.53212235	    -24.58351000	     -8.32357969	     -1.96893702	     -9.53497594	    -26.88473057	    -45.71771040	     67.36819386	     90.00000001	      0.00000000	      0.00000000	      2.00480431	    -19.99689145	     12.69124158	     83.67870158	     90.00000001	      0.00000000	      0.00000000
      2.96000000	     10.77487177	      7.58655816	     17.67055787	      0.68674903	      0.90610515	      0.50850390	    -10.74676383	      0.03244503	    -20.12699708	     18.48514385	      3.40112705	      0.32262662	     20.79269822	     -0.40590691	     -7.53138692	     24.17417630	     -6.15137265	      3.11700078	     26.84006065	      5.54587578	      0.46844743	      6.93133506	      7.58716526	     -7.53138692	    -24.68865755	     -8.26002239	     -1.60470375	     -9.57175021	    -26.98885930	    -44.66192404	     68.44307720	     90.00000001	      0.00000000	      0.00000000	      1.49852816	    -19.88284855	     12.57728785	     83.79029260	     90.00000001	      0.00000000	      0.00000000
      2.97000000	     10.97194152	      7.54924344	     17.11240669	      0.68940712	      0.90572035	      0.50850074	    -10.92619334	      0.01650667	    -19.91469826	     18.80695221	      3.32181817	      0.32824324	     20.71299613	     -0.26110880	     -7.53096862	     24.61173126	     -5.90523704	      3.34450694	     27.07213100	      5.61628385	      0.47249782	      6.84411556	      7.64461034	     -7.53096862	    -24.61146307	     -8.26924754	     -1.12572968	     -9.26654849	    -26.91518415	    -44.23877229	     68.79610820	     90.00000001	      0.00000000	      0.00000000	      1.09043106	    -19.74601464	     12.65101206	     83.68052927	     90.00000001	      0.00000000	      0.00000000
      2.98000000	     11.34417510	      7.49156392	     16.69561571	      0.69200447	      0.90537928	      0.50838818	    -11.41712015	      0.16389405	    -19.57693328	     18.87136817	      3.27612176	      0.32936751	     21.31145647	     -0.24843546	     -7.53034832	     24.89450251	     -5.77593147	      3.88086739	     27.35727945	      5.95848378	      0.47747460	      6.82415445	      7.39640661	     -7.53034832	    -24.77992223	     -8.08838746	     -0.96301687	     -9.38261235	    -26.96986826	    -42.87848973	     70.36702818	     90.00000001	      0.00000000	      0.00000000	      0.51084426	    -19.71566022	     12.59396171	     83.76050999	     90.00000001	      0.00000000	      0.00000000
      2.99000000	     11.62043838	      7.36419713	     16.28230017	      0.69464122	      0.90492236	      0.50819772	    -11.77603991	      0.32257514	    -19.23225900	     18.96703519	      3.26447136	      0.33103721	     21.45495880	     -0.17457193	     -7.52952463	     25.20067076	     -5.63044974	      4.45966419	     27.54936023	      6.22008582	      0.48082704	      6.73693774	      6.95195756	     -7.52952463	    -24.80004522	     -7.88930067	     -0.67142421	     -9.45268010	    -27.05769972	    -41.65171191	     71.36818626	     90.00000001	      0.00000000	      0.00000000	      0.01144409	    -19.55297912	     12.56434910	     83.73326199	     90.00000001	      0.00000000	      0.00000000
      3.00000000	     11.83243701	      7.25913657	     15.85108635	      0.69740459	      0.90441643	      0.50801232	    -12.05155335	      0.42673088	    -18.97236801	     19.13084156	      3.20506648	      0.33389617	     21.62141495	     -0.16761076	     -7.52902594	     25.48245746	     -5.47168785	      4.81667653	     27.69481868	      6.40549835	      0.48336577	      6.62766173	      6.76732652	     -7.52902594	    -24.74013794	     -7.74174516	     -0.42352100	     -9.23755844	    -26.94431401	    -40.77770353	     72.22609682	     90.00000001	      0.00000000	      0.00000000	     -0.49174693	    -19.47308177	     12.66983242	     83.57621666	     90.00000001	      0.00000000	      0.00000000
